#!OML:ASF F:\VICON\USERDATA\INSTALL\rory3\rory3.ASF
:FULLY-SPECIFIED
:DEGREES
81
root 0.39242125308578724 17.809466969464268 38.87597544485318 -1.9999511392030453 -3.6859009499740587 -8.055850950223554
lfemur -28.941875832811913 -0.2936945765309076 -10.002105151319869
ltibia 44.58243602751181
lfoot -7.490869560834414 4.094255646792521
ltoes -6.431408595190386
rfemur 0.14524284433353074 6.480811041789848 35.73202609107588
rtibia 25.617228382868657
rfoot -20.821509590944522 -8.548777241369294
rtoes 11.405334795048502
lowerback 10.208850930705921 1.5801952821456107 6.644024275386324
upperback 0.37288418630640857 3.009538662792255 2.4195776649979153
thorax -5.118838234207162 1.3494506001812767 -1.812886962192997
lowerneck -16.10460379942551 -2.907224217025056 -2.137819004756419
upperneck 19.035034675450287 -3.686480360446572 0.9756339861074979
head 8.623693164556299 -1.788594165544573 0.22256129116887124
lclavicle -1.1675334205968173e-15 -9.699950716259438e-16
lhumerus -34.882458840608244 6.175976145312214 81.2369036954531
lradius 25.504553439837096
lwrist 5.44152473970345
lhand -30.815598572761374 18.4928558221602
lfingers 7.125020000000056
lthumb -4.104703802595309 48.464853395567005
rclavicle -1.1675334205968173e-15 -9.699950716259438e-16
rhumerus -23.882554716837546 -9.514922937627947 -82.95468471512865
rradius 32.58493016278666
rwrist -2.265285911775886
rhand -17.518030381947867 30.40349188536956
rfingers 7.125020000000056
rthumb 8.735656186177334 -5.950695517293678
82
root 0.39616741299557584 17.738105042820393 38.82151932734354 -1.2249279220181166 -4.23875386561118 -8.424187050933066
lfemur -28.717801680283227 -2.7694924430093577 -8.629484377636164
ltibia 31.65098765661122
lfoot -7.1103254470444845 6.714696305395846
ltoes -6.330038525382841
rfemur 3.0169850420786 6.636826643173129 36.14242108216262
rtibia 23.598164387377704
rfoot -22.15605192258291 -8.7095549892228
rtoes 8.860983052018458
lowerback 9.900444237749593 1.8746318704135843 7.114193021937682
upperback 0.3145308166385505 3.431986508404638 2.3835267063072028
thorax -4.9549564941353745 1.54862864896086 -2.151784852484314
lowerneck -16.39365436024991 -2.930611288442707 -2.036292598683716
upperneck 18.792157741484534 -3.734980946433961 0.9793385721330004
head 8.594535853298277 -1.804322309015427 0.19956335802069888
lclavicle -1.1179602801339281e-15 -9.316104786922695e-16
lhumerus -35.74159327482467 8.136873381818324 80.45421957054577
lradius 24.20564997600887
lwrist 4.9730218308381
lhand -30.710615744791724 19.022402089287834
lfingers 7.125020000000056
lthumb -4.003309400472283 48.992466392422614
rclavicle -1.1179602801339281e-15 -9.316104786922695e-16
rhumerus -21.96864337613883 -8.234534346569312 -83.16728715540332
rradius 33.8860182729649
rwrist -3.1522954038383295
rhand -17.599879314529574 30.49082676893698
rfingers 7.125020000000056
rthumb 8.656644279060297 -5.393960040173391
83
root 0.4002229933687549 17.664491603473714 38.52595513926664 -0.64021500108447 -4.750227024424694 -8.57762445657656
lfemur -27.994869799978023 -4.960448477493044 -7.759563829952006
ltibia 20.573471526190136
lfoot -6.706737772728998 8.058309885226429
ltoes -6.6936399600739005
rfemur 5.746561611841733 6.766460797981292 36.212613774893825
rtibia 22.157870088865742
rfoot -23.291089279541172 -8.37820932861363
rtoes 4.888276889199773
lowerback 9.534047299054176 2.1173907928916704 7.277639463891381
upperback 0.2601906279832002 3.74555649065409 2.3143196606774197
thorax -4.788347026836003 1.702743868048283 -2.3524348918773748
lowerneck -16.585133842550167 -2.9743077123685726 -1.9500277297667314
upperneck 18.70485895306694 -3.8189267815743073 0.9883407910496742
head 8.60116106281279 -1.835126305815934 0.17783306712235872
lclavicle -1.1965459179918745e-15 -9.924595703369032e-16
lhumerus -36.571551860743384 10.24827341485632 79.47913470217493
lradius 22.279190146960026
lwrist 4.058877558254991
lhand -30.500734967626506 19.71077370166629
lfingers 7.125020000000056
lthumb -3.8006059847339717 49.680074683442015
rclavicle -1.1965459179918745e-15 -9.924595703369032e-16
rhumerus -20.536167055227352 -7.879581695866844 -83.22577746083991
rradius 34.43465285140809
rwrist -3.5125903936376313
rhand -17.690188347191803 30.401902338887098
rfingers 7.125020000000056
rthumb 8.569508162651335 -5.156018190254034
84
root 0.41014910465485765 17.59711379986274 38.45286954699731 -0.35794420648687264 -5.074294509415678 -8.441687570280108
lfemur -27.106703500633685 -6.134560160592334 -7.744097997266859
ltibia 13.967782905673452
lfoot -5.824440400705306 7.595591691752468
ltoes -7.003449072647806
rfemur 8.253505662127411 6.8226226724679915 35.92149963475306
rtibia 22.158782537314828
rfoot -23.661976325810723 -7.368863299132775
rtoes 0.01766986081484756
lowerback 9.22326536745172 2.288137107582668 7.175874099918496
upperback 0.22024652454778815 3.935883071850429 2.207319046819158
thorax -4.64956960065075 1.8013819059307066 -2.4113822544614094
lowerneck -16.645339722673018 -3.037188476769141 -1.8938192793692556
upperneck 18.777261448340905 -3.928738528709018 1.020252062062354
head 8.639444482613042 -1.8790626436870332 0.16614882166791017
lclavicle -1.211122324033749e-15 -1.0037461009654026e-15
lhumerus -37.29494037577964 12.308550750625617 78.45785895609936
lradius 20.416288888983047
lwrist 2.8091381212752022
lhand -30.210703712603173 20.30760756867918
lfingers 7.125020000000056
lthumb -3.52049962470295 50.27740288608999
rclavicle -1.211122324033749e-15 -1.0037461009654026e-15
rhumerus -19.71105789297744 -8.219592537286967 -83.09252648168733
rradius 34.795980370322
rwrist -3.4142648647015097
rhand -17.769352752252022 30.317258834256474
rfingers 7.125020000000056
rthumb 8.493128422089335 -5.067597540190791
